<?xml version="1.0" standalone="no"?><!DOCTYPE svg PUBLIC "-//W3C//DTD SVG 1.1//EN" "http://www.w3.org/Graphics/SVG/1.1/DTD/svg11.dtd"><svg t="1692930205847" class="icon" viewBox="0 0 1024 1024" version="1.1" xmlns="http://www.w3.org/2000/svg" p-id="11324" xmlns:xlink="http://www.w3.org/1999/xlink" width="128" height="128"><path d="M213.312 170.688H256v42.688h-42.688zM298.688 170.688h42.688v42.688h-42.688zM128 213.312h42.688V256H128z" p-id="11325"></path><path d="M170.688 213.312h42.688V256h-42.688z" p-id="11326"></path><path d="M213.312 213.312H256V256h-42.688zM256 213.312h42.688V256H256zM298.688 213.312h42.688V256h-42.688z" p-id="11327"></path><path d="M341.312 213.312H384V256h-42.688zM384 213.312h42.688V256H384zM426.688 213.312h42.688V256h-42.688z" p-id="11328"></path><path d="M469.312 213.312H512V256h-42.688zM85.312 298.688H128v42.688h-42.688zM512 213.312h42.688V256H512zM554.688 170.688h42.688v42.688h-42.688z" p-id="11329"></path><path d="M554.688 213.312h42.688V256h-42.688z" p-id="11330"></path><path d="M597.312 213.312H640V256h-42.688zM640 213.312h42.688V256H640z" p-id="11331"></path><path d="M640 256h42.688v42.688H640z" fill="#FFFFFF" p-id="11332"></path><path d="M682.688 213.312h42.624V256h-42.624zM213.312 42.688H256v42.688h-42.688zM256 85.312h42.688V128H256zM597.312 85.312H640V128h-42.688zM640 42.688h42.688v42.688H640zM682.688 42.688h42.688v42.688h-42.688zM682.688 298.688h42.688v42.688h-42.688zM725.312 256H768v42.688h-42.688zM768 213.312h42.688V256H768z" p-id="11333"></path><path d="M896 256h42.688v42.688H896z" fill="#6BBC6E" p-id="11334"></path><path d="M682.688 426.688h42.688v42.688h-42.688z" p-id="11335"></path><path d="M725.312 469.312H768V512h-42.688zM768 469.312h42.688V512H768zM810.688 469.312h42.688V512h-42.688z" p-id="11336"></path><path d="M853.312 426.688H896v42.688h-42.688zM896 426.688h42.688v42.688H896zM938.688 384h42.688v42.688h-42.688zM170.688 384h42.688v42.688h-42.688z" p-id="11337"></path><path d="M213.312 384H256v42.688h-42.688zM256 384h42.688v42.688H256z" fill="#6FC9F3" p-id="11338"></path><path d="M298.688 384h42.688v42.688h-42.688z" fill="#FFFFFF" p-id="11339"></path><path d="M341.312 384H384v42.688h-42.688zM384 384h42.688v42.688H384zM426.688 384h42.688v42.688h-42.688z" fill="#6FC9F3" p-id="11340"></path><path d="M469.312 384H512v42.688h-42.688z" fill="#6FC9F3" p-id="11341"></path><path d="M213.312 426.688H256v42.688h-42.688z" p-id="11342"></path><path d="M256 426.688h42.688v42.688H256z" fill="#FFFFFF" p-id="11343"></path><path d="M298.688 426.688h42.688v42.688h-42.688z" fill="#6FC9F3" p-id="11344"></path><path d="M341.312 426.688H384v42.688h-42.688zM384 426.688h42.688v42.688H384zM426.688 426.688h42.688v42.688h-42.688z" fill="#6FC9F3" p-id="11345"></path><path d="M469.312 426.688H512v42.688h-42.688z" fill="#6FC9F3" p-id="11346"></path><path d="M298.688 469.312h42.688V512h-42.688z" fill="#FFFFFF" p-id="11347"></path><path d="M384 469.312h42.688V512H384zM426.688 469.312h42.688V512h-42.688zM512 384h42.688v42.688H512z" fill="#6FC9F3" p-id="11348"></path><path d="M512 426.688h42.688v42.688H512z" fill="#37BEF0" p-id="11349"></path><path d="M512 469.312h42.688V512H512zM298.688 512h42.688v42.688h-42.688z" p-id="11350"></path><path d="M384 512h42.688v42.688H384zM426.688 512h42.688v42.688h-42.688zM554.688 384h42.688v42.688h-42.688z" fill="#37BEF0" p-id="11351"></path><path d="M554.688 426.688h42.688v42.688h-42.688zM597.312 384H640v42.688h-42.688zM384 554.688h42.688v42.688H384zM426.688 554.688h42.688v42.688h-42.688z" p-id="11352"></path><path d="M426.688 597.312h42.688V640h-42.688zM341.312 640H384v42.688h-42.688zM426.688 640h42.688v42.688h-42.688zM341.312 682.688H384v42.688h-42.688zM426.688 682.688h42.688v42.688h-42.688z" p-id="11353"></path><path d="M341.312 725.312H384V768h-42.688zM426.688 725.312h42.688V768h-42.688zM426.688 768h42.688v42.688h-42.688zM426.688 810.688h42.688v42.688h-42.688zM341.312 810.688H384v42.688h-42.688z" p-id="11354"></path><path d="M341.312 853.312H384V896h-42.688zM298.688 896h42.688v42.688h-42.688zM469.312 896H512v42.688h-42.688zM256 938.688h42.688v42.688H256zM512 938.688h42.688v42.688H512zM426.688 853.312h42.688V896h-42.688zM170.688 42.688h42.688v42.688h-42.688zM170.688 128h42.688v42.688h-42.688zM298.688 128h42.688v42.688h-42.688zM85.312 213.312H128V256h-42.688zM42.688 256h42.688v42.688H42.688zM0 213.312h42.688V256H0zM0 42.688h42.688v42.688H0zM0 0h42.688v42.688H0z" p-id="11355"></path><path d="M42.688 213.312h42.688V256H42.688zM42.688 85.312h42.688V128H42.688zM42.688 0h42.688v42.688H42.688z" p-id="11356"></path><path d="M85.312 0H128v42.688h-42.688zM128 42.688h42.688v42.688H128zM85.312 128H128v42.688h-42.688zM128 128h42.688v42.688H128z" p-id="11357"></path><path d="M256 170.688h42.688v42.688H256zM213.312 85.312H256V128h-42.688z" fill="#FFFFFF" p-id="11358"></path><path d="M170.688 85.312h42.688V128h-42.688zM213.312 128H256v42.688h-42.688zM256 128h42.688v42.688H256zM42.688 42.688h42.688v42.688H42.688z" fill="#FFFFFF" p-id="11359"></path><path d="M85.312 42.688H128v42.688h-42.688z" fill="#FFFFFF" p-id="11360"></path><path d="M85.312 85.312H128V128h-42.688zM128 85.312h42.688V128H128z" fill="#FFFFFF" p-id="11361"></path><path d="M128 341.312h42.688V384H128zM170.688 341.312h42.688V384h-42.688z" p-id="11362"></path><path d="M213.312 341.312H256V384h-42.688zM256 341.312h42.688V384H256zM298.688 341.312h42.688V384h-42.688z" p-id="11363"></path><path d="M341.312 341.312H384V384h-42.688zM384 341.312h42.688V384H384zM426.688 341.312h42.688V384h-42.688z" p-id="11364"></path><path d="M469.312 341.312H512V384h-42.688zM512 341.312h42.688V384H512zM554.688 341.312h42.688V384h-42.688zM597.312 128H640v42.688h-42.688z" p-id="11365"></path><path d="M597.312 341.312H640V384h-42.688zM640 341.312h42.688V384H640zM640 384h42.688v42.688H640zM640 426.688h42.688v42.688H640z" p-id="11366"></path><path d="M85.312 256H128v42.688h-42.688zM128 256h42.688v42.688H128zM170.688 256h42.688v42.688h-42.688z" fill="#FFFFFF" p-id="11367"></path><path d="M213.312 256H256v42.688h-42.688z" fill="#E6E6E6" p-id="11368"></path><path d="M256 256h42.688v42.688H256zM298.688 256h42.688v42.688h-42.688z" fill="#FFFFFF" p-id="11369"></path><path d="M341.312 256H384v42.688h-42.688zM384 256h42.688v42.688H384zM426.688 256h42.688v42.688h-42.688z" fill="#FFFFFF" p-id="11370"></path><path d="M469.312 256H512v42.688h-42.688zM128 298.688h42.688v42.688H128z" fill="#FFFFFF" p-id="11371"></path><path d="M170.688 298.688h42.688v42.688h-42.688z" fill="#E6E6E6" p-id="11372"></path><path d="M213.312 298.688H256v42.688h-42.688zM256 298.688h42.688v42.688H256zM298.688 298.688h42.688v42.688h-42.688z" fill="#FFFFFF" p-id="11373"></path><path d="M341.312 298.688H384v42.688h-42.688zM384 298.688h42.688v42.688H384zM426.688 298.688h42.688v42.688h-42.688z" fill="#FFFFFF" p-id="11374"></path><path d="M469.312 298.688H512v42.688h-42.688zM512 256h42.688v42.688H512zM512 298.688h42.688v42.688H512zM554.688 256h42.688v42.688h-42.688zM554.688 298.688h42.688v42.688h-42.688z" fill="#FFFFFF" p-id="11375"></path><path d="M597.312 256H640v42.688h-42.688zM597.312 298.688H640v42.688h-42.688zM640 298.688h42.688v42.688H640zM682.688 256h42.688v42.688h-42.688z" fill="#FFFFFF" p-id="11376"></path><path d="M725.312 0H768v42.688h-42.688z" p-id="11377"></path><path d="M725.312 128H768v42.688h-42.688z" fill="#6BBC6E" p-id="11378"></path><path d="M725.312 213.312H768V256h-42.688zM768 0h42.688v42.688H768zM810.688 0h42.688v42.688h-42.688zM853.312 42.688H896v42.688h-42.688zM896 42.688h42.688v42.688H896z" p-id="11379"></path><path d="M938.624 85.312h42.688V128h-42.688zM938.624 128h42.688v42.688h-42.688zM981.312 170.688H1024v42.688h-42.688z" p-id="11380"></path><path d="M981.312 213.312H1024V256h-42.688zM981.312 256H1024v42.688h-42.688z" p-id="11381"></path><path d="M640 170.688h42.688v42.624H640zM682.688 170.688h42.688v42.624h-42.688zM725.312 85.312H768V128h-42.688zM810.688 256h42.688v42.688h-42.688z" fill="#69BD7F" p-id="11382"></path><path d="M853.312 256H896v42.688h-42.688zM853.312 298.688H896v42.688h-42.688zM896 298.688h42.688v42.688H896zM725.312 384H768v42.688h-42.688zM810.688 384h42.688v42.688h-42.688zM725.312 341.312H768V384h-42.688zM896 170.688h42.688v42.688H896zM810.688 85.312h42.688V128h-42.688zM810.688 128h42.688v42.688h-42.688z" fill="#69BD7F" p-id="11383"></path><path d="M810.688 341.312h42.688V384h-42.688zM853.312 170.688H896v42.688h-42.688z" fill="#69BD7F" p-id="11384"></path><path d="M725.312 170.688H768v42.624h-42.688zM640 85.312h42.688V128H640zM768 42.688h42.688v42.688H768z" fill="#FFFFFF" p-id="11385"></path><path d="M768 85.312h42.688V128H768zM725.312 298.688H768v42.688h-42.688zM768 256h42.688v42.688H768zM768 298.688h42.688v42.688H768zM810.688 170.688h42.688v42.688h-42.688z" fill="#FFFFFF" p-id="11386"></path><path d="M810.688 213.312h42.688V256h-42.688zM810.688 298.688h42.688v42.688h-42.688z" fill="#FFFFFF" p-id="11387"></path><path d="M853.312 213.312H896V256h-42.688zM768 384h42.688v42.688H768zM768 426.688h42.688v42.688H768zM896 384h42.688v42.688H896zM682.688 128h42.688v42.688h-42.688zM682.688 341.312h42.688V384h-42.688zM896 85.312h42.688V128H896zM853.312 128H896v42.688h-42.688zM938.624 213.312h42.688V256h-42.688zM768 128h42.688v42.688H768zM768 170.688h42.688v42.688H768zM768 341.312h42.688V384H768zM853.312 341.312H896V384h-42.688z" fill="#FFFFFF" p-id="11388"></path><path d="M896 213.312h42.688V256H896z" fill="#FFFFFF" p-id="11389"></path><path d="M597.312 170.688H640v42.624h-42.688zM682.688 85.312h42.688V128h-42.688z" fill="#579D5C" p-id="11390"></path><path d="M725.312 42.688H768v42.688h-42.688zM938.688 298.688h42.688v42.688h-42.688zM682.688 384h42.688v42.688h-42.688zM725.312 426.688H768v42.688h-42.688zM810.688 426.688h42.688v42.688h-42.688zM853.312 384H896v42.688h-42.688zM640 128h42.688v42.688H640zM853.312 85.312H896V128h-42.688zM896 128h42.688v42.688H896zM938.624 170.688h42.688v42.688h-42.688z" fill="#579D5C" p-id="11391"></path><path d="M810.688 42.688h42.688v42.688h-42.688zM896 341.312h42.688V384H896zM938.688 256h42.688v42.688h-42.688z" fill="#579D5C" p-id="11392"></path><path d="M938.688 341.312h42.688V384h-42.688z" p-id="11393"></path><path d="M981.312 298.688H1024v42.688h-42.688zM170.688 981.312h42.688V1024h-42.688z" p-id="11394"></path><path d="M213.312 981.312H256V1024h-42.688zM256 981.312h42.688V1024H256zM298.688 981.312h42.688V1024h-42.688z" p-id="11395"></path><path d="M341.312 981.312H384V1024h-42.688zM384 981.312h42.688V1024H384zM426.688 981.312h42.688V1024h-42.688z" p-id="11396"></path><path d="M469.312 981.312H512V1024h-42.688zM512 981.312h42.688V1024H512zM554.688 981.312h42.688V1024h-42.688z" p-id="11397"></path><path d="M597.312 981.312H640V1024h-42.688zM256 469.312h42.688V512H256z" p-id="11398"></path><path d="M341.312 469.312H384V512h-42.688z" fill="#6FC9F3" p-id="11399"></path><path d="M469.312 469.312H512V512h-42.688zM341.312 512H384v42.688h-42.688z" fill="#37BEF0" p-id="11400"></path><path d="M469.312 512H512v42.688h-42.688zM341.312 554.688H384v42.688h-42.688z" p-id="11401"></path><path d="M341.312 597.312H384V640h-42.688zM341.312 768H384v42.688h-42.688z" p-id="11402"></path><path d="M384 640h42.688v42.688H384zM384 682.688h42.688v42.688H384z" fill="#FFFFFF" p-id="11403"></path><path d="M384 725.312h42.688V768H384zM384 768h42.688v42.688H384zM384 853.312h42.688V896H384zM341.312 896H384v42.688h-42.688zM384 896h42.688v42.688H384z" fill="#FFFFFF" p-id="11404"></path><path d="M426.688 896h42.688v42.688h-42.688z" fill="#E6E6E6" p-id="11405"></path><path d="M298.688 938.688h42.688v42.688h-42.688z" fill="#FFFFFF" p-id="11406"></path><path d="M341.312 938.688H384v42.688h-42.688zM384 938.688h42.688v42.688H384zM426.688 938.688h42.688v42.688h-42.688z" fill="#FFFFFF" p-id="11407"></path><path d="M469.312 938.688H512v42.688h-42.688z" fill="#E6E6E6" p-id="11408"></path><path d="M384 597.312h42.688V640H384zM384 810.688h42.688v42.688H384z" fill="#FFFFFF" p-id="11409"></path></svg>