<?xml version="1.0" standalone="no"?><!DOCTYPE svg PUBLIC "-//W3C//DTD SVG 1.1//EN" "http://www.w3.org/Graphics/SVG/1.1/DTD/svg11.dtd"><svg t="1695720182464" class="icon" viewBox="0 0 1024 1024" version="1.1" xmlns="http://www.w3.org/2000/svg" p-id="5623" xmlns:xlink="http://www.w3.org/1999/xlink" width="128" height="128"><path d="M597.333333 554.666667h281.6c9.386667 0 17.066667 7.68 17.066667 17.066666V810.666667a85.333333 85.333333 0 0 1-85.333333 85.333333h-238.933334a17.066667 17.066667 0 0 1-17.066666-17.066667V597.333333a42.666667 42.666667 0 0 1 42.666666-42.666666z m42.666667 102.4v136.533333c0 9.386667 7.68 17.066667 17.066667 17.066667h136.533333a17.066667 17.066667 0 0 0 17.066667-17.066667v-136.533333a17.066667 17.066667 0 0 0-17.066667-17.066667h-136.533333a17.066667 17.066667 0 0 0-17.066667 17.066667zM213.333333 128h238.933334c9.386667 0 17.066667 7.68 17.066666 17.066667V426.666667a42.666667 42.666667 0 0 1-42.666666 42.666666H145.066667a17.066667 17.066667 0 0 1-17.066667-17.066666V213.333333a85.333333 85.333333 0 0 1 85.333333-85.333333z m17.066667 256h136.533333a17.066667 17.066667 0 0 0 17.066667-17.066667V230.4a17.066667 17.066667 0 0 0-17.066667-17.066667H230.4a17.066667 17.066667 0 0 0-17.066667 17.066667v136.533333c0 9.386667 7.68 17.066667 17.066667 17.066667z m-85.333333 170.666667H426.666667a42.666667 42.666667 0 0 1 42.666666 42.666666v281.6a17.066667 17.066667 0 0 1-17.066666 17.066667H213.333333a85.333333 85.333333 0 0 1-85.333333-85.333333v-238.933334c0-9.386667 7.68-17.066667 17.066667-17.066666zM213.333333 657.066667v136.533333c0 9.386667 7.68 17.066667 17.066667 17.066667h136.533333a17.066667 17.066667 0 0 0 17.066667-17.066667v-136.533333a17.066667 17.066667 0 0 0-17.066667-17.066667H230.4a17.066667 17.066667 0 0 0-17.066667 17.066667zM571.733333 128H810.666667a85.333333 85.333333 0 0 1 85.333333 85.333333v238.933334a17.066667 17.066667 0 0 1-17.066667 17.066666H597.333333a42.666667 42.666667 0 0 1-42.666666-42.666666V145.066667c0-9.386667 7.68-17.066667 17.066666-17.066667zM640 230.4v136.533333c0 9.386667 7.68 17.066667 17.066667 17.066667h136.533333a17.066667 17.066667 0 0 0 17.066667-17.066667V230.4a17.066667 17.066667 0 0 0-17.066667-17.066667h-136.533333a17.066667 17.066667 0 0 0-17.066667 17.066667z" fill="#31303D" p-id="5624"></path></svg>