<?xml version="1.0" standalone="no"?><!DOCTYPE svg PUBLIC "-//W3C//DTD SVG 1.1//EN" "http://www.w3.org/Graphics/SVG/1.1/DTD/svg11.dtd"><svg t="1695720100711" class="icon" viewBox="0 0 1024 1024" version="1.1" xmlns="http://www.w3.org/2000/svg" p-id="3779" xmlns:xlink="http://www.w3.org/1999/xlink" width="128" height="128"><path d="M401.066667 473.6a42.666667 42.666667 0 1 0-85.333334 0v76.8a42.666667 42.666667 0 1 0 85.333334 0v-76.8zM554.666667 396.8a42.666667 42.666667 0 1 0-85.333334 0v153.6a42.666667 42.666667 0 0 0 85.333334 0V396.8zM665.6 277.333333a42.666667 42.666667 0 0 1 42.666667 42.666667v230.4a42.666667 42.666667 0 1 1-85.333334 0V320a42.666667 42.666667 0 0 1 42.666667-42.666667z" fill="#666666" p-id="3780"></path><path d="M128 128a42.666667 42.666667 0 0 0-42.666667 42.666667v512a42.666667 42.666667 0 0 0 42.666667 42.666666h341.333333v85.333334H298.666667a42.666667 42.666667 0 1 0 0 85.333333h426.666666a42.666667 42.666667 0 1 0 0-85.333333h-170.666666v-85.333334h341.333333a42.666667 42.666667 0 0 0 42.666667-42.666666V170.666667a42.666667 42.666667 0 0 0-42.666667-42.666667H128z m42.666667 512V213.333333h682.666666v426.666667H170.666667z" fill="#666666" p-id="3781"></path></svg>